<?xml version="1.0" encoding="utf-8"?>
<!-- Generator: Adobe Illustrator 23.0.1, SVG Export Plug-In . SVG Version: 6.00 Build 0)  -->
<svg version="1.1" xmlns="http://www.w3.org/2000/svg" xmlns:xlink="http://www.w3.org/1999/xlink" x="0px" y="0px"
	 viewBox="0 0 1366 768" style="enable-background:new 0 0 1366 768;" xml:space="preserve">
<style type="text/css">
	.st0{display:none;}
	.st1{display:inline;fill:#2E5162;stroke:#000000;stroke-miterlimit:10;}
	.st2{fill:url(#SVGID_1_);stroke:#000000;stroke-miterlimit:10;}
	.st3{fill:url(#SVGID_2_);stroke:#000000;stroke-miterlimit:10;}
	.st4{display:inline;fill:url(#SVGID_3_);stroke:#000000;stroke-miterlimit:10;}
	.st5{display:inline;fill:#666666;}
	.st6{display:inline;fill:url(#SVGID_4_);stroke:#000000;stroke-miterlimit:10;}
	.st7{display:inline;fill:url(#SVGID_5_);stroke:#000000;stroke-miterlimit:10;}
</style>
<g id="Layer_2" class="st0">
	<rect x="59.5" y="53.5" class="st1" width="1194" height="662"/>
</g>
<g id="Layer_1">
	<g>
		<radialGradient id="SVGID_1_" cx="385.5675" cy="301.9951" r="7.672152e-03" gradientUnits="userSpaceOnUse">
			<stop  offset="0.8652" style="stop-color:#C1272D"/>
			<stop  offset="1" style="stop-color:#1B1464"/>
			<stop  offset="1" style="stop-color:#3B397E"/>
			<stop  offset="1" style="stop-color:#8B95BF"/>
			<stop  offset="1" style="stop-color:#CCE0F4"/>
		</radialGradient>
		<polygon class="st2" points="385.57,301.99 385.56,302 385.58,302 		"/>
		<radialGradient id="SVGID_2_" cx="659.7114" cy="234.5" r="113.8082" gradientUnits="userSpaceOnUse">
			<stop  offset="0.8652" style="stop-color:#C1272D"/>
			<stop  offset="1" style="stop-color:#1B1464"/>
			<stop  offset="1" style="stop-color:#3B397E"/>
			<stop  offset="1" style="stop-color:#8B95BF"/>
			<stop  offset="1" style="stop-color:#CCE0F4"/>
		</radialGradient>
		<path class="st3" d="M781.39,181.03c-1.77-3.27-3.99-6.23-6.65-8.87c-2.66-2.64-5.94-4.88-9.84-6.73
			c-3.9-1.84-8.22-3.06-12.97-3.65c-4.49-0.59-16.49-0.98-25.98-1.15l0.08-0.11h-39.27l-2.97,3.95V136h-30.5v69.12l-16.35,21.79
			l-23.53-25.44V136h-30.5v32.49l-7.37-7.97h-43.13l1.23,1.33V333h30.5V194.83l18.77,20.29v104.35h30.5v-71.38l3.46,3.74h36.42
			v67.64h30.5V216.81l9.38-12.51V333h30.5v-59.84c2.85,10.29,5.02,18.33,6.5,24.11c0.76,2.68,1.68,6.5,2.76,11.45
			c2.67,11.83,4.5,19.92,5.52,24.28c10.39-0.17,17.86-0.25,22.42-0.25c3.61,0,10.64,0.09,21.09,0.25c-1.46-4.7-2.47-7.84-3.04-9.44
			l-12.74-36.86c-1.59-4.61-3.08-9.14-4.47-13.59l-4.94-15.98c6.34-3.27,11.27-6.48,14.78-9.62s6.43-6.88,8.75-11.2
			c2.31-4.32,4.01-8.93,5.09-13.84c1.08-4.91,1.62-10.17,1.62-15.79c0-5.03-0.49-9.75-1.47-14.15
			C784.54,188.13,783.16,184.3,781.39,181.03z M744.83,226.57c-1.94,3.86-4.79,6.71-8.56,8.55c-3.77,1.85-7.97,2.77-12.59,2.77
			c-0.01,0-0.01,0-0.02,0v-41.13c0.16,0,0.33-0.01,0.49-0.01c6.53,0,11.36,0.67,14.5,2.01c3.14,1.34,5.43,3.38,6.89,6.1
			c1.46,2.73,2.19,5.89,2.19,9.5C747.73,218.64,746.77,222.71,744.83,226.57z"/>
	</g>
	<g class="st0">
		<linearGradient id="SVGID_3_" gradientUnits="userSpaceOnUse" x1="361" y1="383" x2="425.8701" y2="383">
			<stop  offset="0.7452" style="stop-color:#000000;stop-opacity:0.81"/>
			<stop  offset="1" style="stop-color:#FFFFFF"/>
		</linearGradient>
		<path class="st4" d="M405.33,415v-2.76c6.33-0.79,6.56-1.38,6.49-11.91l0.08-40.17c-6.33,18.02-16.53,46.18-19.23,54.84h-2.01
			c-2.63-8.96-11.35-36.04-17.22-53.86c-1.31,34.46-1.39,42.24-1.39,44.11c0.08,5.51,2.01,6.3,7.26,6.99V415H361v-2.76
			c4.48-0.59,6.33-1.77,6.95-7.09c0.46-4.33,0.54-7.88,2.55-43.81c0.31-5.12-0.46-6.79-7.26-7.58V351h13.44l17.07,49.92l18.3-49.92
			h13.51v2.76c-6.64,0.98-7.49,1.87-7.34,8.76l0.31,37.81c0.31,10.54,0.54,11.03,7.34,11.91V415H405.33z"/>
		<path class="st5" d="M444.17,383.22c8.5,0,14.82,6.46,14.82,15.23c0,11.01-8.16,16.25-14.82,16.25c-9.38,0-15.09-7.55-15.09-15.16
			C429.07,388.45,437.71,383.22,444.17,383.22z M443.35,385.53c-4.15,0-7.89,4.01-7.89,11.9c0,8.63,3.81,14.89,9.38,14.89
			c4.22,0,7.75-3.06,7.75-12.38C452.6,391.99,449.33,385.53,443.35,385.53z"/>
		<path class="st5" d="M482.52,413.88v-1.9c3.94-0.41,4.49-0.75,4.49-5.24v-11.15c0-5.64-2.18-8.5-6.73-8.43
			c-2.58,0-5.3,1.29-7.21,3.54v16.05c0,4.42,0.54,4.83,4.62,5.24v1.9h-14.82v-1.9c3.94-0.34,4.83-0.68,4.83-5.24v-32.77
			c0-3.6-0.2-4.49-4.76-4.9v-1.77c3.6-0.34,7.68-1.36,10.13-2.31c0,2.65,0,5.64,0,8.43v14.75c2.45-2.45,6.19-4.96,9.86-4.96
			c5.58,0,9.45,3.47,9.45,11.63v11.97c0,4.49,0.54,4.83,4.49,5.17v1.9H482.52z"/>
		<path class="st5" d="M522.57,414.7c-1.02,0-2.52-0.54-3.2-1.29c-0.88-0.88-1.29-1.84-1.63-3.06c-2.72,1.84-6.05,4.35-8.16,4.35
			c-4.83,0-8.3-4.01-8.3-8.36c0-3.33,1.84-5.51,5.58-6.8c4.15-1.43,9.25-3.2,10.74-4.42v-1.36c0-4.83-2.45-7.62-5.98-7.62
			c-1.56,0-2.52,0.75-3.2,1.56c-0.75,0.95-1.22,2.45-1.84,4.42c-0.34,1.09-0.95,1.56-1.97,1.56c-1.29,0-2.99-1.36-2.99-2.99
			c0-0.95,0.88-1.77,2.24-2.72c1.97-1.43,5.92-3.94,9.79-4.76c2.04,0,4.15,0.61,5.71,1.84c2.38,2.04,3.47,4.35,3.47,7.89v13.12
			c0,3.13,1.16,4.08,2.38,4.08c0.82,0,1.7-0.34,2.45-0.75l0.68,1.9L522.57,414.7z M517.61,397.5c-1.5,0.75-4.76,2.17-6.32,2.86
			c-2.58,1.16-4.15,2.45-4.15,4.96c0,3.6,2.72,5.24,4.9,5.24c1.77,0,4.22-1.09,5.58-2.45C517.61,404.91,517.61,400.69,517.61,397.5z
			"/>
		<path class="st5" d="M568.54,413.88v-1.9c4.01-0.41,4.49-0.68,4.49-5.44v-11.36c0-4.83-1.63-7.89-5.85-7.89
			c-2.58,0-4.96,1.43-7.55,3.54c0.07,0.82,0.2,1.63,0.2,2.92v13.19c0,4.28,0.61,4.62,4.35,5.03v1.9h-14.55v-1.9
			c4.22-0.41,4.83-0.68,4.83-5.17v-11.7c0-5.03-1.56-7.82-5.71-7.82c-2.72,0-5.37,1.84-7.48,3.54v15.98c0,4.49,0.48,4.76,4.35,5.17
			v1.9H531v-1.9c4.49-0.41,4.9-0.68,4.9-5.17v-14.07c0-4.35-0.27-4.62-4.08-5.3v-1.7c3.2-0.48,6.39-1.36,9.45-2.72
			c0,1.63,0,3.88,0,5.51c1.43-1.09,2.86-2.24,5.03-3.54c1.7-1.09,3.2-1.77,5.37-1.77c3.26,0,6.05,2.04,7.41,5.58
			c1.9-1.5,3.67-2.65,5.37-3.81c1.5-0.95,3.4-1.77,5.37-1.77c5.3,0,8.57,3.81,8.57,10.47v13.12c0,4.56,0.41,4.76,4.28,5.17v1.9
			H568.54z"/>
		<path class="st5" d="M624.09,413.88v-1.9c4.01-0.41,4.49-0.68,4.49-5.44v-11.36c0-4.83-1.63-7.89-5.85-7.89
			c-2.58,0-4.96,1.43-7.55,3.54c0.07,0.82,0.2,1.63,0.2,2.92v13.19c0,4.28,0.61,4.62,4.35,5.03v1.9h-14.55v-1.9
			c4.22-0.41,4.83-0.68,4.83-5.17v-11.7c0-5.03-1.56-7.82-5.71-7.82c-2.72,0-5.37,1.84-7.48,3.54v15.98c0,4.49,0.48,4.76,4.35,5.17
			v1.9h-14.62v-1.9c4.49-0.41,4.9-0.68,4.9-5.17v-14.07c0-4.35-0.27-4.62-4.08-5.3v-1.7c3.2-0.48,6.39-1.36,9.45-2.72
			c0,1.63,0,3.88,0,5.51c1.43-1.09,2.86-2.24,5.03-3.54c1.7-1.09,3.2-1.77,5.37-1.77c3.26,0,6.05,2.04,7.41,5.58
			c1.9-1.5,3.67-2.65,5.37-3.81c1.5-0.95,3.4-1.77,5.37-1.77c5.3,0,8.57,3.81,8.57,10.47v13.12c0,4.56,0.41,4.76,4.28,5.17v1.9
			H624.09z"/>
		<path class="st5" d="M667,408.1c-4.35,5.44-9.11,6.59-11.29,6.59c-8.3,0-13.33-6.8-13.33-14.62c0-4.62,1.63-8.91,4.42-11.9
			c2.86-3.2,6.6-4.96,10.13-4.96c5.92,0,10.4,5.1,10.4,10.54c-0.07,1.36-0.27,1.97-1.36,2.24c-1.36,0.27-10.06,0.88-18.15,1.16
			c-0.2,9.11,5.37,12.85,10.2,12.85c2.79,0,5.37-1.16,7.89-3.47L667,408.1z M655.3,385.8c-3.13,0-6.19,2.92-7.14,8.43
			c3.81,0,7.62,0,11.63-0.21c1.22,0,1.63-0.34,1.63-1.36C661.49,389.06,659.11,385.8,655.3,385.8z"/>
		<linearGradient id="SVGID_4_" gradientUnits="userSpaceOnUse" x1="688.0796" y1="392.0562" x2="728.6719" y2="392.0562">
			<stop  offset="0.7452" style="stop-color:#000000;stop-opacity:0.81"/>
			<stop  offset="1" style="stop-color:#FFFFFF"/>
		</linearGradient>
		<path class="st6" d="M728.4,414.43c-0.88,0-1.63-0.07-2.52-0.14c-4.96-0.34-7.62-1.63-10.61-5.85c-2.52-3.47-4.96-7.75-7.14-11.22
			c-1.36-2.18-2.24-2.58-5.71-2.58h-2.38v10.67c0,5.78,0.75,6.12,6.19,6.66v1.9h-18.15v-1.9c5.64-0.61,6.12-0.88,6.12-6.66v-27.13
			c0-5.78-0.75-5.98-6.12-6.6v-1.9h17.34c4.96,0,8.29,0.61,10.88,2.31c2.79,1.77,4.62,4.83,4.62,8.98c0,5.85-3.74,9.52-8.77,11.69
			c1.22,2.11,4.15,6.66,6.19,9.72c2.52,3.6,3.81,5.3,5.37,7c1.84,1.97,3.4,2.72,4.96,3.13L728.4,414.43z M703.31,392.33
			c3.54,0,5.78-0.54,7.48-1.97c2.65-1.97,3.74-4.69,3.74-8.36c0-7.28-4.83-9.93-10.06-9.93c-1.97,0-3.13,0.27-3.6,0.68
			c-0.61,0.48-0.82,1.16-0.82,2.92v16.66H703.31z"/>
		<linearGradient id="SVGID_5_" gradientUnits="userSpaceOnUse" x1="745.6055" y1="391.7842" x2="792.9297" y2="391.7842">
			<stop  offset="0.7452" style="stop-color:#000000;stop-opacity:0.81"/>
			<stop  offset="1" style="stop-color:#FFFFFF"/>
		</linearGradient>
		<path class="st7" d="M792.93,371.59c-5.64,0.54-6.19,0.88-6.19,6.6v27.27c0,5.71,0.61,5.92,6.19,6.53v1.9h-18.22v-1.9
			c5.64-0.68,6.19-0.82,6.19-6.53v-13.6h-23.25v13.6c0,5.64,0.54,5.85,6.12,6.53v1.9h-18.15v-1.9c5.51-0.61,6.12-0.82,6.12-6.53
			v-27.27c0-5.71-0.61-6.05-6.12-6.6v-1.9h18.15v1.9c-5.44,0.48-6.12,0.95-6.12,6.6V389h23.25v-10.81c0-5.64-0.75-6.12-6.19-6.6
			v-1.9h18.22V371.59z"/>
		<path class="st5" d="M821.08,408.1c-4.35,5.44-9.11,6.59-11.29,6.59c-8.29,0-13.33-6.8-13.33-14.62c0-4.62,1.63-8.91,4.42-11.9
			c2.86-3.2,6.6-4.96,10.13-4.96c5.92,0,10.4,5.1,10.4,10.54c-0.07,1.36-0.27,1.97-1.36,2.24c-1.36,0.27-10.06,0.88-18.15,1.16
			c-0.2,9.11,5.37,12.85,10.2,12.85c2.79,0,5.37-1.16,7.89-3.47L821.08,408.1z M809.39,385.8c-3.13,0-6.19,2.92-7.14,8.43
			c3.81,0,7.62,0,11.63-0.21c1.22,0,1.63-0.34,1.63-1.36C815.58,389.06,813.2,385.8,809.39,385.8z"/>
		<path class="st5" d="M843.25,392.12c-1.22-3.94-2.99-6.66-7.14-6.66c-2.38,0-4.21,1.7-4.21,4.42c0,2.92,1.97,4.28,5.78,6.05
			c5.85,2.79,8.77,4.83,8.77,9.32c0,6.25-5.71,9.45-11.08,9.45c-3.54,0-6.66-1.09-8.09-1.9c-0.34-1.97-0.95-5.71-1.22-7.96
			l1.97-0.34c1.22,4.35,3.6,7.89,8.36,7.89c2.58,0,4.76-1.77,4.76-4.62c0-3.06-1.84-4.62-5.44-6.39c-4.76-2.31-8.64-4.49-8.64-9.38
			c0-4.96,4.22-8.77,10.61-8.77c2.86,0,5.17,0.68,6.53,0.88c0.2,1.63,0.68,5.92,1.02,7.55L843.25,392.12z"/>
		<path class="st5" d="M868.61,392.12c-1.22-3.94-2.99-6.66-7.14-6.66c-2.38,0-4.21,1.7-4.21,4.42c0,2.92,1.97,4.28,5.78,6.05
			c5.85,2.79,8.77,4.83,8.77,9.32c0,6.25-5.71,9.45-11.08,9.45c-3.54,0-6.66-1.09-8.09-1.9c-0.34-1.97-0.95-5.71-1.22-7.96
			l1.97-0.34c1.22,4.35,3.6,7.89,8.36,7.89c2.58,0,4.76-1.77,4.76-4.62c0-3.06-1.84-4.62-5.44-6.39c-4.76-2.31-8.63-4.49-8.63-9.38
			c0-4.96,4.22-8.77,10.61-8.77c2.86,0,5.17,0.68,6.53,0.88c0.2,1.63,0.68,5.92,1.02,7.55L868.61,392.12z"/>
		<path class="st5" d="M891.94,383.22c8.5,0,14.82,6.46,14.82,15.23c0,11.01-8.16,16.25-14.82,16.25c-9.38,0-15.09-7.55-15.09-15.16
			C876.84,388.45,885.48,383.22,891.94,383.22z M891.12,385.53c-4.15,0-7.89,4.01-7.89,11.9c0,8.63,3.81,14.89,9.38,14.89
			c4.22,0,7.75-3.06,7.75-12.38C900.37,391.99,897.11,385.53,891.12,385.53z"/>
	</g>
</g>
</svg>
